<?xml version="1.0" encoding="UTF-8"?>
<svg width="46px" height="76px" viewBox="0 0 46 76" version="1.1" xmlns="http://www.w3.org/2000/svg" xmlns:xlink="http://www.w3.org/1999/xlink">
    <!-- Generator: Sketch 46 (44423) - http://www.bohemiancoding.com/sketch -->
    <title>iStock-607769914</title>
    <desc>Created with Sketch.</desc>
    <defs></defs>
    <g id="Page-1" stroke="none" stroke-width="1" fill="none" fill-rule="evenodd">
        <g id="iStock-607769914" fill="#FFFFFF">
            <path d="M37.2910675,18.132 C42.2438344,23.538 45.9694336,28.315 45.9694336,36.7995 L45.9694336,36.8025 C45.9659259,53.27 31.9274074,55.776 22.1501525,75.9945 C16.8771895,71.3825 13.8531155,64.7245 13.8531155,57.7275 C13.8531155,46.217 34.2424401,34.0295 37.2910675,18.132" id="Fill-3"></path>
            <path d="M23.3472549,0.0335 L26.0751852,0.0335 C27.3720044,0.0335 28.4232898,1.083 28.4232898,2.377 C28.4232898,3.671 27.3720044,4.72 26.0751852,4.72 L23.3472549,4.72 C22.0499346,4.72 20.9986492,3.671 20.9986492,2.377 C20.9986492,1.083 22.0499346,0.0335 23.3472549,0.0335" id="Fill-4"></path>
            <path d="M17.827756,8.9625 L29.4876035,8.9625 C30.7844227,8.9625 31.8357081,10.0115 31.8357081,11.3055 C31.8357081,12.5995 30.7844227,13.649 29.4876035,13.649 L17.827756,13.649 C16.5309368,13.649 15.4796514,12.5995 15.4796514,11.3055 C15.4796514,10.0115 16.5309368,8.9625 17.827756,8.9625" id="Fill-5"></path>
            <path d="M10.6215904,17.891 L28.64878,17.891 C29.9455991,17.891 30.9968845,18.94 30.9968845,20.2345 C30.9968845,21.5285 29.9455991,22.5775 28.64878,22.5775 L10.6215904,22.5775 C9.32477124,22.5775 8.27348584,21.5285 8.27348584,20.2345 C8.27348584,18.94 9.32477124,17.891 10.6215904,17.891" id="Fill-6"></path>
            <path d="M3.97363834,26.82 L23.2259913,26.82 C24.5233115,26.82 25.5745969,27.869 25.5745969,29.163 C25.5745969,30.457 24.5233115,31.506 23.2259913,31.506 L3.97363834,31.506 C2.67681917,31.506 1.62503268,30.457 1.62503268,29.163 C1.62503268,27.869 2.67681917,26.82 3.97363834,26.82" id="Fill-7"></path>
            <path d="M2.37917211,35.7485 L15.2205882,35.7485 C16.5179085,35.7485 17.5691939,36.7975 17.5691939,38.0915 C17.5691939,39.386 16.5179085,40.435 15.2205882,40.435 L2.37917211,40.435 C1.08235294,40.435 0.0305664488,39.386 0.0305664488,38.0915 C0.0305664488,36.7975 1.08235294,35.7485 2.37917211,35.7485" id="Fill-8"></path>
            <path d="M5.78958606,44.677 L8.76254902,44.677 C10.0598693,44.677 11.1111547,45.7265 11.1111547,47.0205 C11.1111547,48.3145 10.0598693,49.3635 8.76254902,49.3635 L5.78958606,49.3635 C4.49276688,49.3635 3.44148148,48.3145 3.44148148,47.0205 C3.44148148,45.7265 4.49276688,44.677 5.78958606,44.677" id="Fill-9"></path>
            <path d="M37.2915686,18.132 C34.2424401,34.0295 13.8531155,46.217 13.8531155,57.7275 C13.8531155,64.7245 16.8771895,71.3825 22.1501525,75.9945 C10.2833551,48.804 50.7503268,40.435 37.2915686,18.132" id="Fill-10"></path>
        </g>
    </g>
</svg>