<?xml version="1.0" encoding="UTF-8"?>
<svg width="64px" height="92px" viewBox="0 0 64 92" version="1.1" xmlns="http://www.w3.org/2000/svg" xmlns:xlink="http://www.w3.org/1999/xlink">
    <!-- Generator: Sketch 44.1 (41455) - http://www.bohemiancoding.com/sketch -->
    <title>Page 1</title>
    <desc>Created with Sketch.</desc>
    <defs></defs>
    <g id="Page-1" stroke="none" stroke-width="1" fill="none" fill-rule="evenodd">
        <g id="Sky" transform="translate(-227.000000, -20.000000)" fill="#FFFFFF">
            <g id="Page-1" transform="translate(227.000000, 20.000000)">
                <path d="M15.9403,91.882 L22.1373,85.699 L22.1373,63.312 C19.9663,63.897 17.8873,64.395 15.9403,64.799 L15.9403,91.882 Z" id="Fill-1"></path>
                <path d="M22.1373,23.733 L15.9403,29.915 L15.9403,61.679 C17.8343,61.358 19.9193,60.907 22.1373,60.34 L22.1373,23.733 Z" id="Fill-2"></path>
                <path d="M34.3083,56.463 L34.3083,0 L28.1253,6.196 L28.1253,58.617 C29.6253,58.141 31.1583,57.627 32.7193,57.064 C33.2593,56.868 33.7813,56.663 34.3083,56.463 Z" id="Fill-3"></path>
                <path d="M28.1253,61.543 L28.1253,79.713 L34.3083,73.53 L34.3083,59.422 C34.0143,59.53 33.7223,59.641 33.4253,59.746 C31.6253,60.397 29.8593,60.987 28.1253,61.543 Z" id="Fill-4"></path>
                <path d="M40.2983,67.545 L46.4843,61.349 L46.4843,54.313 C44.5373,55.244 42.4683,56.169 40.2983,57.075 L40.2983,67.545 Z" id="Fill-5"></path>
                <path d="M46.4843,29.703 L40.2983,35.903 L40.2983,53.969 C42.5313,52.949 44.5983,51.901 46.4843,50.859 L46.4843,29.703 Z" id="Fill-6"></path>
                <path d="M5.0743,60.604 C4.5823,58.736 8.0113,55.672 13.7773,52.412 C4.9183,56.966 -0.6187,61.447 0.0553,64.032 C0.7083,66.524 6.9903,66.648 15.9403,64.799 L15.9403,61.679 C9.7623,62.728 5.5613,62.448 5.0743,60.604 Z" id="Fill-7"></path>
                <path d="M22.1373,60.34 L22.1373,63.312 C24.0673,62.789 26.0653,62.203 28.1253,61.543 L28.1253,58.617 C26.0513,59.274 24.0443,59.852 22.1373,60.34 Z" id="Fill-8"></path>
                <path d="M63.0673,41.27 C62.4333,38.838 56.3913,38.657 47.7203,40.384 C53.1863,39.597 56.6313,39.274 57.2783,41.748 C57.6913,43.34 53.3973,47.037 46.4843,50.859 L46.4843,54.313 C56.9753,49.29 63.8143,44.125 63.0673,41.27 Z" id="Fill-9"></path>
                <path d="M34.3083,56.463 L34.3083,59.422 C36.3723,58.663 38.3733,57.877 40.2983,57.075 L40.2983,53.969 C38.4053,54.833 36.3963,55.668 34.3083,56.463 Z" id="Fill-10"></path>
                <path d="M15.9403,61.679 L15.9403,64.799 C17.8873,64.395 19.9663,63.897 22.1373,63.312 L22.1373,60.34 C19.9193,60.907 17.8343,61.358 15.9403,61.679 Z" id="Fill-11"></path>
                <path d="M32.7193,57.064 C31.1583,57.627 29.6253,58.141 28.1253,58.617 L28.1253,61.543 C29.8593,60.987 31.6253,60.397 33.4253,59.746 C33.7223,59.641 34.0143,59.53 34.3083,59.422 L34.3083,56.463 C33.7813,56.663 33.2593,56.868 32.7193,57.064 Z" id="Fill-12"></path>
                <path d="M40.2983,53.969 L40.2983,57.075 C42.4683,56.169 44.5373,55.244 46.4843,54.313 L46.4843,50.859 C44.5983,51.901 42.5313,52.949 40.2983,53.969 Z" id="Fill-13"></path>
            </g>
        </g>
    </g>
</svg>